HIERARCHY
ROOT Hips
{
	OFFSET 0.000000 0.000000 0.000000
	CHANNELS 6 Xposition Yposition Zposition Zrotation Yrotation Xrotation 
	JOINT LHipJoint
	{
		OFFSET 0.000000 0.000000 0.000000
		CHANNELS 3 Zrotation Yrotation Xrotation
		JOINT LeftUpLeg
		{
			OFFSET 1.363060 -1.794630 0.839290
			CHANNELS 3 Zrotation Yrotation Xrotation
			JOINT LeftLeg
			{
				OFFSET 2.448110 -6.726130 0.000000
				CHANNELS 3 Zrotation Yrotation Xrotation
				JOINT LeftFoot
				{
					OFFSET 2.562200 -7.039590 0.000000
					CHANNELS 3 Zrotation Yrotation Xrotation
					JOINT LeftToeBase
					{
						OFFSET 0.157640 -0.433110 2.322550
						CHANNELS 3 Zrotation Yrotation Xrotation
						End Site
						{
							OFFSET 0.000000 0.000000 0.000000
						}
					}
				}
			}
		}
	}
	JOINT RHipJoint
	{
		OFFSET 0.000000 0.000000 0.000000
		CHANNELS 3 Zrotation Yrotation Xrotation
		JOINT RightUpLeg
		{
			OFFSET -1.305520 -1.794630 0.839290
			CHANNELS 3 Zrotation Yrotation Xrotation
			JOINT RightLeg
			{
				OFFSET -2.542530 -6.985550 0.000000
				CHANNELS 3 Zrotation Yrotation Xrotation
				JOINT RightFoot
				{
					OFFSET -2.568260 -7.056230 0.000000
					CHANNELS 3 Zrotation Yrotation Xrotation
					JOINT RightToeBase
					{
						OFFSET -0.164730 -0.452590 2.363150
						CHANNELS 3 Zrotation Yrotation Xrotation
						End Site
						{
							OFFSET 0.000000 0.000000 0.000000
						}
					}
				}
			}
		}
	}
}
MOTION
Frames: 22
Frame Time: 0.008333
2.429139 17.172151 0.928337 -118.077866 -81.712208 135.239259 -10.834644 -0.281360 5.794656 2.848653 -9.996791 -46.583739 1.102765 2.000070 56.099165 3.017141 15.492611 -11.366940 -0.593701 -0.000000 -15.391000 6.770495 -2.605379 5.807748 22.692460 9.035117 -10.603873 4.800374 2.586169 -1.679340 -0.058195 2.210265 -8.071375 179.943100 -0.000000 -4.086401
2.177427 17.165482 0.889457 -122.863778 -81.752584 140.018628 -10.608542 -0.298996 6.052031 2.933766 -10.518423 -47.368981 0.943336 1.814495 52.680952 2.952893 14.767560 -11.022890 -0.437400 -0.000000 -16.090400 6.918271 -2.575289 5.539795 22.271126 8.180341 -8.962027 4.749529 2.723466 -2.834782 0.059346 2.871540 -8.002090 179.964800 0.000000 -4.750500
1.925465 17.152224 0.853368 -127.743407 -81.689638 144.844158 -10.430607 -0.311863 6.266764 3.000437 -10.801223 -47.926479 0.776284 1.608296 48.919231 2.881112 14.052898 -10.507718 -0.245800 0.000000 -17.235400 7.013511 -2.560857 5.272179 21.881439 7.384111 -7.277216 4.697917 2.847359 -3.940900 0.161781 3.488396 -7.973547 179.982400 -0.000001 -5.482100
1.673152 17.132303 0.820509 -132.295801 -81.531518 149.304765 -10.301120 -0.331092 6.438889 3.040945 -10.837075 -48.281779 0.603470 1.377578 44.853328 2.805309 13.379276 -9.844471 -0.028700 0.000001 -18.763000 7.061408 -2.566104 5.013761 21.541639 6.671048 -5.561793 4.646311 2.956135 -4.995791 0.247923 4.045659 -7.982679 179.995200 0.000000 -6.223999
1.420433 17.105792 0.790969 -136.242622 -81.273466 153.108006 -10.208220 -0.347641 6.583730 3.039843 -10.612702 -48.456555 0.423656 1.119248 40.523907 2.727934 12.765653 -9.075166 0.201900 -0.000000 -20.523001 7.041753 -2.621701 4.712159 21.347967 6.077327 -4.771818 4.627977 2.832611 -3.887810 0.243831 4.607227 -9.140187 -179.996500 0.000000 -6.910400
1.167376 17.072992 0.764741 -139.450523 -80.952673 156.144249 -10.152570 -0.373255 6.688341 2.966518 -10.120458 -48.488525 0.228479 0.833085 35.972083 2.647482 12.208471 -8.247592 0.434800 0.000000 -22.366699 7.002393 -2.694001 4.421508 21.213610 5.541842 -3.964110 4.618962 2.697142 -2.728180 0.216219 5.135975 -10.287179 -179.992400 -0.000000 -7.457600
0.913935 17.034260 0.741737 -141.919411 -80.581734 158.416781 -10.129696 -0.407011 6.750009 2.786452 -9.341403 -48.407817 0.007037 0.518373 31.241069 2.556633 11.673324 -7.403521 0.658900 -0.000000 -24.216000 6.955919 -2.779642 4.145724 21.131168 5.036314 -3.063215 4.619857 2.567015 -1.691000 0.181221 5.657915 -11.299623 -179.991601 0.000000 -7.791500
0.660158 16.990096 0.721867 -143.739340 -80.167912 160.010041 -10.136336 -0.449703 6.763191 2.454801 -8.251478 -48.240090 -0.254179 0.174683 26.384394 2.441103 11.090516 -6.579057 0.859600 0.000000 -26.008000 6.908728 -2.877630 3.883624 21.091367 4.531248 -2.055213 4.631651 2.444031 -0.801342 0.148536 6.202101 -12.131204 -179.993600 -0.000000 -7.822800
0.405947 16.941062 0.705082 -145.036494 -79.716206 161.037410 -10.168722 -0.505911 6.716556 1.916851 -6.826107 -48.008995 -0.568606 -0.196285 21.483504 2.279487 10.354248 -5.798266 1.016700 0.000000 -27.733300 6.865293 -2.987515 3.631721 21.076087 3.990707 -0.920181 4.653578 2.329190 -0.079022 0.126549 6.797132 -12.744043 -179.997700 0.000000 -7.476400
0.151513 16.887867 0.691311 -145.966334 -79.233436 161.629763 -10.219195 -0.582849 6.593847 1.111367 -5.050859 -47.743218 -0.946455 -0.587788 16.663593 2.047036 9.334031 -5.076944 1.104200 -0.000001 -29.419200 6.830025 -3.108569 3.384597 21.055516 3.374428 0.364770 4.682650 2.222293 0.462362 0.122064 7.468328 -13.110765 179.996900 0.000000 -6.688000
-0.103260 16.831274 0.680412 -146.681621 -78.733372 161.918613 -10.274075 -0.685969 6.381555 -0.013560 -2.944234 -47.491346 -1.389867 -0.985812 12.101257 1.724028 7.901297 -4.429896 1.095400 0.000000 -31.144900 6.808659 -3.240352 3.136536 20.986271 2.639615 1.816767 4.713780 2.122614 0.813355 0.141369 8.236923 -13.213951 179.990901 0.000000 -5.389500
-0.358713 16.772248 0.672148 -147.305091 -78.240491 162.022309 -10.314872 -0.814981 6.082472 -1.465568 -0.589178 -47.329226 -1.887496 -1.370846 8.002544 1.309217 5.980411 -3.890862 0.972700 0.000000 -32.903100 6.805667 -3.381683 2.887240 20.822224 1.767328 3.430336 4.740219 2.030683 0.965040 0.189532 9.102161 -13.054737 179.984601 -0.000000 -3.588700
-0.615358 16.711898 0.666022 -147.920717 -77.792194 162.040643 -10.323957 -0.959816 5.723781 -3.174888 1.837503 -47.312367 -2.408946 -1.722959 4.534831 0.830558 3.622164 -3.486123 0.749100 0.000000 -34.790600 6.826859 -3.530916 2.633302 20.516501 0.738879 5.182497 4.754971 1.947397 0.905824 0.273553 10.060563 -12.635592 179.977800 0.000000 -1.281700
-0.873953 16.651360 0.661588 -148.508170 -77.420474 162.001826 -10.296349 -1.107317 5.359619 -4.962180 4.090830 -47.461539 -2.907097 -2.028262 1.779250 0.342176 1.023468 -3.243767 0.468500 -0.000000 -36.801400 6.868252 -3.683858 2.382331 20.067254 -0.391494 7.021992 4.753550 1.876426 0.631212 0.397327 11.053700 -11.998187 -0.032001 0.000000 -1.269000
-1.134672 16.591806 0.657595 -149.118562 -77.162925 161.976465 -10.235162 -1.239839 5.038825 -6.629477 5.926010 -47.667261 -3.335938 -2.280165 -0.286355 -0.097394 -1.532854 -3.187066 0.189700 0.000001 -38.723701 6.941646 -3.839682 2.115085 19.432708 -1.680561 8.929428 4.731078 1.814445 0.124428 0.578155 12.111504 -11.081683 -0.041000 0.000000 -4.601400
-1.398973 16.534133 0.653615 -149.620270 -77.014275 161.898706 -10.164096 -1.352827 4.805169 -7.950546 7.199794 -47.865147 -3.662066 -2.474963 -1.721840 -0.449434 -3.785620 -3.294220 -0.037100 -0.000000 -40.548801 7.025082 -3.989372 1.858741 18.702103 -2.949028 10.854352 4.689849 1.768213 -0.581247 0.807278 13.089553 -10.029567 -0.058800 -0.000001 -7.507700
-1.667265 16.479273 0.648323 -150.071580 -76.981033 161.826948 -10.096692 -1.436430 4.666483 -8.834997 7.868573 -47.941736 -3.878513 -2.608607 -2.590329 -0.701266 -5.569326 -3.532452 -0.189600 -0.000000 -42.169000 7.122355 -4.131623 1.610212 17.876799 -4.183881 12.790691 4.628023 1.731948 -1.466485 1.090555 13.976474 -8.807190 -0.078399 0.000000 -10.341400
-1.940270 16.427961 0.640859 -150.502301 -77.057881 161.796638 -10.042548 -1.483997 4.614701 -9.279291 7.976176 -47.868574 -3.996086 -2.674433 -2.912639 -0.860145 -6.829219 -3.851953 -0.270800 0.000000 -43.565800 7.227211 -4.263720 1.383495 16.995575 -5.299149 14.724132 4.546064 1.702046 -2.487433 1.417983 14.710246 -7.446807 -0.093800 -0.000000 -12.857500
-2.218656 16.380816 0.630449 -150.999274 -77.235752 161.870032 -10.002212 -1.478137 4.648524 -9.359586 7.598310 -47.657791 -4.033219 -2.667383 -2.692055 -0.940587 -7.573789 -4.193016 -0.297500 0.000000 -44.740100 7.325773 -4.396519 1.137253 16.097946 -6.226826 15.693859 4.482688 1.488288 -1.531610 1.517343 15.285928 -7.021367 -0.087300 -0.000000 -15.283900
-2.503029 16.338221 0.616854 -151.594814 -77.516028 162.102474 -9.974284 -1.422528 4.742773 -9.172063 6.807511 -47.377376 -4.006731 -2.582793 -1.928302 -0.956293 -7.835847 -4.487564 -0.290500 0.000000 -45.693800 7.426177 -4.519070 0.932090 15.208220 -6.898989 16.378366 4.403333 1.229106 -0.112208 1.546853 15.638949 -6.680878 -0.036500 -0.000000 -17.885100
-2.793626 16.300447 0.599937 -152.382189 -77.896748 162.588429 -9.952450 -1.315649 4.882304 -8.829243 5.669117 -47.084950 -3.928220 -2.421448 -0.651521 -0.917610 -7.648544 -4.658510 -0.267300 -0.000000 -46.410100 7.534246 -4.633167 0.786731 14.332884 -7.308821 16.981979 4.294235 0.960404 1.299758 1.566808 15.774986 -6.060054 0.087400 0.000000 -21.349200
-3.090518 16.267629 0.579922 -153.427054 -78.367645 163.391021 -9.931741 -1.159743 5.054315 -8.440791 4.267109 -46.840300 -3.805915 -2.188239 1.089207 -0.835217 -7.070924 -4.630405 -0.238400 -0.000001 -46.868800 7.648894 -4.744056 0.705553 13.493940 -7.453676 17.497591 4.151813 0.677516 2.703879 1.579479 15.707395 -5.060435 0.304700 -0.000000 -26.139900
